<svg xmlns="http://www.w3.org/2000/svg" xmlns:xlink="http://www.w3.org/1999/xlink" contentStyleType="text/css" height="445.3125px" preserveAspectRatio="none" style="width:575px;height:445px;background:#C1C1A2;" version="1.1" viewBox="0 0 575 445" width="575px" zoomAndPan="magnify"><defs/><g><rect fill="#C1C1A2" height="445.3125" style="stroke:none;stroke-width:1.5625;" width="575" x="0" y="0"/><!--cluster backend--><g id="cluster_backend"><path d="M174.0156,10.3156 L268.459,10.3156 A5.8594,5.8594 0 0 1 272.3652,14.2218 L283.3027,49.4842 L328.7031,49.4842 A3.9063,3.9063 0 0 1 332.6094,53.3905 L332.6094,167.4562 A3.9063,3.9063 0 0 1 328.7031,171.3625 L174.0156,171.3625 A3.9063,3.9063 0 0 1 170.1094,167.4562 L170.1094,14.2218 A3.9063,3.9063 0 0 1 174.0156,10.3156 " fill="none" style="stroke:#000000;stroke-width:2.34375;"/><line style="stroke:#000000;stroke-width:2.34375;" x1="170.1094" x2="283.3027" y1="49.4842" y2="49.4842"/><text fill="#000000" font-family="sans-serif" font-size="21.875" font-weight="bold" lengthAdjust="spacing" textLength="92.8809" x="176.3594" y="36.8249">backend</text></g><!--cluster frontend--><g id="cluster_frontend"><path d="M194.3281,251.05 L292.6215,251.05 A5.8594,5.8594 0 0 1 296.5278,254.9562 L307.4653,290.2186 L561.5156,290.2186 A3.9063,3.9063 0 0 1 565.4219,294.1248 L565.4219,431.5187 A3.9063,3.9063 0 0 1 561.5156,435.425 L194.3281,435.425 A3.9063,3.9063 0 0 1 190.4219,431.5187 L190.4219,254.9562 A3.9063,3.9063 0 0 1 194.3281,251.05 " fill="none" style="stroke:#000000;stroke-width:2.34375;"/><line style="stroke:#000000;stroke-width:2.34375;" x1="190.4219" x2="307.4653" y1="290.2186" y2="290.2186"/><text fill="#000000" font-family="sans-serif" font-size="21.875" font-weight="bold" lengthAdjust="spacing" textLength="96.7309" x="196.6719" y="277.5592">frontend</text></g><!--entity Server--><g id="elem_Server"><path d="M208.427,84.028 C213.5709,74.4763 224.0981,72.8536 230.8731,82.0781 C237.3852,71.6677 246.5067,73.6127 252.3722,82.7879 C258.7501,71.993 266.5607,71.347 273.7153,82.0156 C280.0405,70.7834 291.513,72.099 297.266,82.6349 C313.5486,85.3718 319.4298,96.0297 310.7335,110.7373 C320.3144,125.5923 312.8076,133.5042 297.807,135.5562 C294.8336,148.686 285.0329,150.0429 276.2961,141.1979 C273.1451,154.4546 263.3509,158.0416 253.5848,147.5148 C244.1192,156.2428 233.3203,153.978 230.3271,140.6803 C221.106,147.5448 214.7924,145.5846 210.1925,135.2656 C195.1999,135.0202 187.9779,125.3391 196.0912,111.4263 C184.9655,97.1685 190.8927,85.3819 208.427,84.028 " fill="#F1F1F1" style="stroke:#181818;stroke-width:0.78125;"/><text fill="#000000" font-family="sans-serif" font-size="21.875" lengthAdjust="spacing" textLength="65.8654" x="218.4219" y="116.5124">Server</text></g><!--entity Client1--><g id="elem_Client1"><ellipse cx="229.4844" cy="360.425" fill="#F1F1F1" rx="12.5" ry="12.5" style="stroke:#181818;stroke-width:0.78125;"/><text fill="#000000" font-family="sans-serif" font-size="21.875" lengthAdjust="spacing" textLength="71.3778" x="193.7955" y="410.3717">Client1</text></g><!--entity Client2--><g id="elem_Client2"><ellipse cx="345.1094" cy="360.425" fill="#F1F1F1" rx="12.5" ry="12.5" style="stroke:#181818;stroke-width:0.78125;"/><text fill="#000000" font-family="sans-serif" font-size="21.875" lengthAdjust="spacing" textLength="71.3778" x="309.4205" y="410.3717">Client2</text></g><!--entity Client3--><g id="elem_Client3"><ellipse cx="493.5469" cy="360.425" fill="#F1F1F1" rx="12.5" ry="12.5" style="stroke:#181818;stroke-width:0.78125;"/><text fill="#000000" font-family="sans-serif" font-size="21.875" lengthAdjust="spacing" textLength="71.3778" x="457.858" y="410.3717">Client3</text></g><!--link Server to Client1--><g id="link_Server_Client1"><path d="M239.0156,146.7375 C234.5781,161.9406 230.1094,179.8156 227.9219,196.3625 C220.6094,251.4562 224.601,308.6542 227.226,336.3886 " fill="none" id="Server-to-Client1" style="stroke:#181818;stroke-width:1.5625;"/><polygon fill="#181818" points="228.1094,345.7218,233.0065,331.133,227.3732,337.9441,220.5621,332.3108,228.1094,345.7218" style="stroke:#181818;stroke-width:1.5625;"/><text fill="#000000" font-family="sans-serif" font-size="20.3125" lengthAdjust="spacing" textLength="62.8469" x="229.4844" y="219.6391">events</text></g><!--link Client1 to Server--><g id="link_Client1_Server"><path d="M214.6719,353.6593 C164.8906,335.3156 9.375,270.8 57.6094,196.3625 C87.5625,150.1125 139.4585,130.3377 185.0679,120.1814 " fill="none" id="Client1-to-Server" style="stroke:#181818;stroke-width:1.5625;"/><polygon fill="#181818" points="194.2188,118.1437,179.134,115.0997,186.593,119.8418,181.8509,127.3009,194.2188,118.1437" style="stroke:#181818;stroke-width:1.5625;"/><text fill="#000000" font-family="sans-serif" font-size="20.3125" lengthAdjust="spacing" textLength="106.1939" x="59.1719" y="219.6391">commands</text></g><!--link Server to Client2--><g id="link_Server_Client2"><path d="M274.8438,147.0656 C283.5156,162.0031 292.9063,179.6125 299.7969,196.3625 C322.0938,250.5343 335.3475,310.048 340.8943,337.5167 " fill="none" id="Server-to-Client2" style="stroke:#181818;stroke-width:1.5625;"/><polygon fill="#181818" points="342.75,346.7062,346.0928,331.6848,341.2036,339.0483,333.8401,334.1591,342.75,346.7062" style="stroke:#181818;stroke-width:1.5625;"/><text fill="#000000" font-family="sans-serif" font-size="20.3125" lengthAdjust="spacing" textLength="62.8469" x="311.1094" y="219.6391">events</text></g><!--link Server to Client3--><g id="link_Server_Client3"><path d="M307.9844,139.8312 C333.6406,154.9718 363.5,174.675 387.2969,196.3625 C437.875,242.4406 471.1757,309.0897 484.3945,338.2459 " fill="none" id="Server-to-Client3" style="stroke:#181818;stroke-width:1.5625;"/><polygon fill="#181818" points="488.2656,346.7843,488.1512,331.3959,485.0397,339.669,476.7666,336.5574,488.2656,346.7843" style="stroke:#181818;stroke-width:1.5625;"/><text fill="#000000" font-family="sans-serif" font-size="20.3125" lengthAdjust="spacing" textLength="62.8469" x="414.3438" y="219.6391">events</text></g><!--SRC=[TOp13e8m44Jl_Ogr7ZoH2CGB1nFb4_m0Kjk5DC0MsyB5-EzkWcZGUDgTUJEpCLXRGgZCO2j83tiHMak3yge7jhwSiz9juzr8fdITyx0jqp8zPM87pAEDrX58KZrAg1a7l8r86i5OrN0_Y847L8CWh_mW6GbteJit6hYWdz2BnoTIUqTnoLYlEuIoiqWnNSjiBNFUcCSWIOvBfG2S-8PVbFr7-HkzLe3Hd2f0kxvNP89u0W00]--></g></svg>