<svg xmlns="http://www.w3.org/2000/svg" xmlns:xlink="http://www.w3.org/1999/xlink" contentStyleType="text/css" height="418.75px" preserveAspectRatio="none" style="width:595px;height:418px;background:#C1C1A2;" version="1.1" viewBox="0 0 595 418" width="595.3125px" zoomAndPan="magnify"><defs/><g><rect fill="#C1C1A2" height="418.75" style="stroke:none;stroke-width:1.5625;" width="595.3125" x="0" y="0"/><!--cluster backend--><g id="cluster_backend"><path d="M179.0313,9.375 L284.5961,9.375 A5.8594,5.8594 0 0 1 288.5024,13.2813 L299.4399,44.2139 L339.9688,44.2139 A3.9063,3.9063 0 0 1 343.875,48.1201 L343.875,157.5 A3.9063,3.9063 0 0 1 339.9688,161.4063 L179.0313,161.4063 A3.9063,3.9063 0 0 1 175.125,157.5 L175.125,13.2813 A3.9063,3.9063 0 0 1 179.0313,9.375 " fill="none" style="stroke:#000000;stroke-width:2.34375;"/><line style="stroke:#000000;stroke-width:2.34375;" x1="175.125" x2="299.4399" y1="44.2139" y2="44.2139"/><text fill="#000000" font-family="sans-serif" font-size="21.875" font-weight="bold" lengthAdjust="spacing" textLength="104.0024" x="181.375" y="32.8049">backend</text></g><!--cluster frontend--><g id="cluster_frontend"><path d="M200.9062,237.9688 L309.8998,237.9688 A5.8594,5.8594 0 0 1 313.806,241.875 L324.7435,272.8076 L580.5938,272.8076 A3.9063,3.9063 0 0 1 584.5,276.7139 L584.5,404.375 A3.9063,3.9063 0 0 1 580.5938,408.2813 L200.9062,408.2813 A3.9063,3.9063 0 0 1 197,404.375 L197,241.875 A3.9063,3.9063 0 0 1 200.9062,237.9688 " fill="none" style="stroke:#000000;stroke-width:2.34375;"/><line style="stroke:#000000;stroke-width:2.34375;" x1="197" x2="324.7435" y1="272.8076" y2="272.8076"/><text fill="#000000" font-family="sans-serif" font-size="21.875" font-weight="bold" lengthAdjust="spacing" textLength="107.431" x="203.25" y="261.3986">frontend</text></g><!--entity Server--><g id="elem_Server"><path d="M213.9342,79.0683 C218.3008,65.5334 230.6193,63.9996 238.536,75.5925 C243.647,65.2899 255.4511,63.7153 262.5618,73.1595 C268.9736,63.5495 280.041,63.3327 285.5562,74.1679 C293.8576,66.431 303.9744,69.3327 307.5769,79.8396 C319.7645,83.1597 324.7958,93.5685 313.7449,103.0612 C322.3589,113.1504 320.6226,120.6829 308.3462,125.8157 C302.4963,138.6755 295.1421,142.4487 283.4851,132.0131 C281.7211,145.8602 274.9582,149.3452 262.8777,142.0858 C250.8597,151.6663 240.9037,148.0026 239.1668,132.4041 C228.1092,140.2448 219.6785,136.6808 215.5892,124.2851 C204.2136,119.1692 201.7611,109.118 211.3534,100.2993 C200.7916,92.5071 201.99,84.1248 213.9342,79.0683 " fill="#F1F1F1" style="stroke:#181818;stroke-width:0.78125;"/><text fill="#000000" font-family="sans-serif" font-size="21.875" lengthAdjust="spacing" textLength="71.7346" x="223.625" y="107.8049">Server</text></g><!--entity Client1--><g id="elem_Client1"><ellipse cx="236.0625" cy="337.9688" fill="#F1F1F1" rx="12.5" ry="12.5" style="stroke:#181818;stroke-width:0.78125;"/><text fill="#000000" font-family="sans-serif" font-size="21.875" lengthAdjust="spacing" textLength="77.2461" x="197.4395" y="384.8361">Client1</text></g><!--entity Client2--><g id="elem_Client2"><ellipse cx="354.8125" cy="337.9688" fill="#F1F1F1" rx="12.5" ry="12.5" style="stroke:#181818;stroke-width:0.78125;"/><text fill="#000000" font-family="sans-serif" font-size="21.875" lengthAdjust="spacing" textLength="77.2461" x="316.1895" y="384.8361">Client2</text></g><!--entity Client3--><g id="elem_Client3"><ellipse cx="509.5" cy="337.9688" fill="#F1F1F1" rx="12.5" ry="12.5" style="stroke:#181818;stroke-width:0.78125;"/><text fill="#000000" font-family="sans-serif" font-size="21.875" lengthAdjust="spacing" textLength="77.2461" x="470.877" y="384.8361">Client3</text></g><!--link Server to Client1--><g id="link_Server_Client1"><path d="M246.5938,137.1094 C241.7813,152.0938 236.8906,169.8906 234.5,186.4063 C227.2344,236.6719 230.9875,288.0639 233.6438,314.142 " fill="none" id="Server-to-Client1" style="stroke:#181818;stroke-width:1.5625;"/><polygon fill="#181818" points="234.5937,323.4688,239.3866,308.8453,233.8021,315.6965,226.9509,310.112,234.5937,323.4688" style="stroke:#181818;stroke-width:1.5625;"/><text fill="#000000" font-family="sans-serif" font-size="20.3125" lengthAdjust="spacing" textLength="68.4357" x="236.0625" y="206.8233">events</text></g><!--link Client1 to Server--><g id="link_Client1_Server"><path d="M221.5313,332.1094 C171.125,316.4375 9.375,259.4688 57.9375,186.4063 C89.2344,139.3125 143.1904,120.1768 190.5029,110.9111 " fill="none" id="Client1-to-Server" style="stroke:#181818;stroke-width:1.5625;"/><polygon fill="#181818" points="199.7031,109.1094,184.7016,105.6785,192.0363,110.6108,187.104,117.9455,199.7031,109.1094" style="stroke:#181818;stroke-width:1.5625;"/><text fill="#000000" font-family="sans-serif" font-size="20.3125" lengthAdjust="spacing" textLength="111.9667" x="59.5" y="206.8233">commands</text></g><!--link Server to Client2--><g id="link_Server_Client2"><path d="M283.75,136.8906 C293.2188,151.7031 303.5625,169.4063 311.0625,186.4063 C332.6406,235.2969 345.0223,288.5851 350.4441,314.7882 " fill="none" id="Server-to-Client2" style="stroke:#181818;stroke-width:1.5625;"/><polygon fill="#181818" points="352.3438,323.9688,355.6147,308.9316,350.7607,316.3183,343.374,311.4644,352.3438,323.9688" style="stroke:#181818;stroke-width:1.5625;"/><text fill="#000000" font-family="sans-serif" font-size="20.3125" lengthAdjust="spacing" textLength="68.4357" x="322.1719" y="206.8233">events</text></g><!--link Server to Client3--><g id="link_Server_Client3"><path d="M318.9219,130.0156 C346.2656,144.625 378.1406,164.0938 403.25,186.4063 C450.9688,228.7969 484.641,288.1837 499.0004,315.7774 " fill="none" id="Server-to-Client3" style="stroke:#181818;stroke-width:1.5625;"/><polygon fill="#181818" points="503.3281,324.0938,502.3808,308.7341,499.7217,317.1635,491.2923,314.5044,503.3281,324.0938" style="stroke:#181818;stroke-width:1.5625;"/><text fill="#000000" font-family="sans-serif" font-size="20.3125" lengthAdjust="spacing" textLength="68.4357" x="429.4531" y="206.8233">events</text></g><!--SRC=[TOp13e8m44Jl_Ogr7ZoH2CGB1nFb4_m0Kjk5DC0MsyB5-EzkWcZGUDgTUJEpCLXRGgZCO2j83tiHMak3yge7jhwSiz9juzr8fdITyx0jqp8zPM87pAEDrX58KZrAg1a7l8r86i5OrN0_Y847L8CWh_mW6GbteJit6hYWdz2BnoTIUqTnoLYlEuIoiqWnNSjiBNFUcCSWIOvBfG2S-8PVbFr7-HkzLe3Hd2f0kxvNP89u0W00]--></g></svg>